<svg width="14" height="14" viewBox="0 0 14 14" fill="none" xmlns="http://www.w3.org/2000/svg">
<path fill-rule="evenodd" clip-rule="evenodd" d="M5.39404 0.666626C3.49604 0.666626 1.97137 2.19063 1.97137 4.08929C1.97137 5.98796 3.49537 7.51263 5.39404 7.51263C7.29337 7.51263 8.81737 5.98796 8.81737 4.08929C8.81737 2.19063 7.29337 0.666626 5.39404 0.666626ZM5.39404 1.66663C6.74071 1.66663 7.81737 2.74329 7.81737 4.08929C7.81737 5.43596 6.74071 6.51263 5.39404 6.51263C4.04737 6.51263 2.97137 5.43596 2.97137 4.08929C2.97137 2.74263 4.04804 1.66663 5.39404 1.66663ZM12.378 4.07729C12.378 2.58796 11.17 1.37929 9.68004 1.37929C9.40404 1.37929 9.18004 1.60329 9.18004 1.87929C9.18004 2.15596 9.40404 2.37929 9.68004 2.37929C10.618 2.37929 11.378 3.13996 11.378 4.07729C11.378 5.01529 10.618 5.77529 9.68004 5.77529C9.40404 5.77529 9.18004 5.99929 9.18004 6.27529C9.18004 6.55196 9.40404 6.77529 9.68004 6.77529C11.17 6.77529 12.378 5.56796 12.378 4.07729ZM11.866 8.32929C11.4967 8.24729 11.112 8.19196 10.7247 8.16529C10.4494 8.14663 10.2114 8.35463 10.192 8.62996C10.1734 8.90596 10.3814 9.14463 10.6567 9.16329C10.994 9.18596 11.3294 9.23463 11.6607 9.30796C12.1787 9.41063 12.5214 9.58196 12.614 9.77663C12.684 9.92329 12.684 10.0966 12.614 10.2433C12.522 10.4373 12.1807 10.6086 11.668 10.714C11.3974 10.7693 11.2234 11.034 11.2794 11.304C11.3347 11.5746 11.5994 11.7493 11.8694 11.6933C12.666 11.5293 13.2494 11.2373 13.5174 10.6733C13.716 10.2533 13.716 9.76663 13.5174 9.34663C13.2474 8.78063 12.6587 8.48663 11.866 8.32929ZM0.333374 11.012C0.333374 9.26262 2.17204 8.63729 5.39404 8.63729L5.60737 8.63863C8.70404 8.66529 10.4554 9.29062 10.4554 10.9986C10.4554 12.6706 8.77671 13.316 5.81537 13.37L5.39404 13.3733C2.16471 13.3733 0.334041 12.76 0.334041 11.012H0.333374ZM9.45537 10.9986C9.45537 10.1006 8.07537 9.63729 5.39404 9.63729C2.71604 9.63729 1.33404 10.1073 1.33404 11.012C1.33404 11.9113 2.71271 12.3733 5.39404 12.3733C8.07271 12.3733 9.45537 11.9033 9.45537 10.9986Z" fill="#BDBDBD"/>
</svg>
