<svg width="16" height="16" viewBox="0 0 16 16" fill="none" xmlns="http://www.w3.org/2000/svg">
<path d="M7.84065 13.9027C6.39398 13.012 5.04732 11.964 3.82598 10.7767C2.96732 9.92201 2.31398 8.88001 1.91532 7.73001C1.19798 5.50001 2.03532 2.94734 4.38065 2.19201C5.61332 1.79467 6.95865 2.02201 7.99732 2.80067C9.03598 2.02267 10.3813 1.79601 11.614 2.19201C13.9586 2.94734 14.8026 5.50001 14.0853 7.73001C13.6866 8.88001 13.0333 9.92201 12.1746 10.7767C10.9533 11.9633 9.60732 13.012 8.15998 13.9027L8.00332 14L7.84065 13.9027V13.9027Z" stroke="white" stroke-width="1.5" stroke-linecap="round" stroke-linejoin="round"/>
<path d="M10.4933 4.702C11.2033 4.92866 11.7073 5.56666 11.7707 6.31666" stroke="white" stroke-width="1.5" stroke-linecap="round" stroke-linejoin="round"/>
</svg>
